<svg width="169" height="40" viewBox="0 0 169 40" fill="none" xmlns="http://www.w3.org/2000/svg">
<g clip-path="url(#clip0_604_161)">
<path d="M43.7587 31.4578C43.7587 32.5817 43.3158 33.6594 42.5274 34.454C41.739 35.2487 40.6698 35.6951 39.5549 35.6951H21.2634C20.1485 35.6951 19.0792 35.2487 18.2908 34.454C17.5025 33.6594 17.0596 32.5817 17.0596 31.4578C17.0596 30.334 17.5025 29.2562 18.2908 28.4616C19.0792 27.6669 20.1485 27.2205 21.2634 27.2205H39.5579C40.6721 27.222 41.7401 27.6692 42.5276 28.4635C43.3152 29.2579 43.7579 30.3348 43.7587 31.4578Z" fill="#004FDA"/>
<path d="M20.3038 23.3985L6.92961 34.7065L6.89886 34.7314C6.50304 35.0662 6.04817 35.3228 5.55806 35.4876C4.75686 35.761 3.89248 35.7841 3.07802 35.554C2.26356 35.324 1.53698 34.8515 0.993338 34.1983C0.449698 33.5452 0.11433 32.7418 0.0311215 31.8933C-0.0520867 31.045 0.12074 30.1909 0.526986 29.4431C0.775473 28.9788 1.10945 28.5664 1.51105 28.228L13.7627 17.8686L17.1917 20.7669L17.533 21.0583L17.6284 21.1357L18.0035 21.4457L20.3038 23.3985Z" fill="#F6E300"/>
<path d="M24.4768 17.7414C24.4837 17.8446 24.4837 17.9482 24.4768 18.0514V18.2219L24.4583 18.38C24.4583 18.4296 24.4583 18.4791 24.4399 18.5257C24.4246 18.6217 24.403 18.7178 24.3815 18.8108C24.2746 19.32 24.0743 19.8047 23.791 20.2399C23.6164 20.5127 23.4099 20.7635 23.176 20.9869L23.0161 21.1294L22.9699 21.1666L20.3037 23.3985L18.0035 21.4519L17.6283 21.1418L17.533 21.0643L17.1916 20.7729L13.7627 17.8746L17.1916 14.9733L17.533 14.6851L17.6283 14.6075L17.9881 14.2976L20.3037 12.3417L22.9792 14.6045L23.0715 14.6851L23.1361 14.7377L23.1607 14.7657C23.3931 14.9823 23.5995 15.2258 23.7757 15.491C24.0329 15.8816 24.2222 16.3134 24.3354 16.7681C24.3354 16.7681 24.3354 16.7836 24.3354 16.7898C24.3354 16.8579 24.3692 16.9262 24.3815 16.9913C24.4061 17.1091 24.4246 17.2269 24.443 17.3477L24.4615 17.5151C24.4615 17.5617 24.4615 17.6081 24.4615 17.6577C24.4686 17.6852 24.4738 17.7132 24.4768 17.7414Z" fill="#FD0075"/>
<path d="M20.3038 12.3322L17.9882 14.2882L17.6284 14.5982L17.533 14.6756L17.1917 14.964L13.7628 17.8653L1.5757 7.55552L1.46805 7.46252C1.08433 7.13361 0.765146 6.73513 0.527037 6.28771C0.0535547 5.42704 -0.10772 4.42702 0.0709286 3.4595C0.249578 2.49198 0.756993 1.61741 1.50597 0.986078C2.25494 0.354753 3.19869 0.00611309 4.17502 7.96405e-05C5.15134 -0.00595381 6.09926 0.330996 6.85586 0.953017L6.90814 0.996413L6.93888 1.01811L20.3038 12.3322Z" fill="#00BE9C"/>
<path d="M67.6837 25.1451C67.5201 24.5144 67.203 23.9349 66.7611 23.4588C66.2792 22.9646 65.6834 22.5983 65.0268 22.3925C64.1505 22.1222 63.2366 21.9966 62.3205 22.0205C61.8974 22.0193 61.4746 22.04 61.0536 22.0826C60.6353 22.1228 60.2387 22.1724 59.8603 22.2313C59.4821 22.2902 59.1346 22.3553 58.8148 22.4297C58.495 22.5041 58.2275 22.5723 58.0153 22.6405L58.4827 25.6163C58.9927 25.4329 59.5204 25.304 60.0572 25.2319C60.6679 25.1395 61.2847 25.094 61.9024 25.0955C62.8371 25.0955 63.4933 25.2856 63.8705 25.6658C64.0622 25.8657 64.2114 26.103 64.3087 26.3632C64.406 26.6233 64.4495 26.9009 64.4363 27.1786V27.5257C64.1422 27.4462 63.8417 27.3923 63.5384 27.3645C63.1176 27.3195 62.6945 27.2988 62.2713 27.3026C61.5852 27.2995 60.9007 27.3702 60.2294 27.5133C59.6123 27.637 59.0213 27.8677 58.4827 28.1953C57.9727 28.5046 57.5493 28.9399 57.2526 29.46C56.9326 30.0524 56.7755 30.7201 56.7974 31.3942C56.7771 32.0851 56.9116 32.7717 57.1911 33.4029C57.4452 33.9383 57.8358 34.396 58.3227 34.7296C58.8568 35.0855 59.4541 35.3338 60.0818 35.4611C60.8303 35.6167 61.5932 35.6915 62.3574 35.6843C63.4894 35.6966 64.6206 35.6178 65.7402 35.4487C66.675 35.2916 67.4049 35.1553 67.9298 35.0395V27.3521C67.9467 26.6086 67.8639 25.8663 67.6837 25.1451ZM64.4363 32.7333C64.2395 32.7644 63.9781 32.7891 63.649 32.8078C63.32 32.8263 62.9755 32.8325 62.6158 32.8325C62.0671 32.8606 61.5204 32.7452 61.029 32.4977C60.8313 32.3712 60.6725 32.1917 60.5703 31.9792C60.4682 31.7668 60.4269 31.5298 60.4509 31.295C60.4407 31.0327 60.5093 30.7735 60.6476 30.551C60.7833 30.3484 60.9701 30.1857 61.1889 30.0799C61.4401 29.9561 61.7106 29.8765 61.9885 29.8444C62.3105 29.8009 62.6352 29.7801 62.9602 29.7823C63.2315 29.7834 63.5025 29.7999 63.772 29.8319C63.9952 29.8524 64.2169 29.8855 64.4363 29.9312V32.7333Z" fill="#252525"/>
<path d="M70.1688 28.8896C70.1624 27.9809 70.3165 27.0782 70.624 26.2239C70.9098 25.4097 71.3603 24.6641 71.9468 24.0346C72.5334 23.405 73.2432 22.9049 74.0313 22.5661C74.918 22.1883 75.8735 22.0024 76.836 22.0206C78.0618 22.0061 79.2771 22.2511 80.4032 22.7397L79.6405 25.6907C79.2712 25.5504 78.8931 25.4344 78.5088 25.3435C78.0569 25.2397 77.5946 25.1897 77.1311 25.1947C76.0487 25.1947 75.2409 25.5336 74.7078 26.2114C74.1445 26.9854 73.8622 27.9309 73.9083 28.8896C73.9083 30.0614 74.1574 30.9727 74.6586 31.6175C75.16 32.2622 76.0332 32.5846 77.2788 32.5846C77.7569 32.5806 78.2339 32.5392 78.7056 32.4606C79.1868 32.3839 79.6575 32.2507 80.1079 32.0638L80.6246 35.0892C80.1074 35.2965 79.572 35.4542 79.0255 35.5604C78.3285 35.6971 77.6198 35.7635 76.9097 35.7587C75.868 35.783 74.8318 35.602 73.859 35.2256C73.0598 34.9055 72.3412 34.41 71.7556 33.7749C71.1998 33.1502 70.7881 32.4092 70.5502 31.605C70.2892 30.7241 70.1606 29.8089 70.1688 28.8896Z" fill="#252525"/>
<path d="M93.2208 25.1451C93.0572 24.5144 92.7401 23.9349 92.2982 23.4588C91.8162 22.9646 91.2204 22.5983 90.5639 22.3925C89.6876 22.1222 88.7737 21.9966 87.8576 22.0205C87.4346 22.0193 87.0116 22.04 86.5907 22.0826C86.1725 22.1228 85.7757 22.1724 85.3975 22.2313C85.0192 22.2902 84.6718 22.3553 84.3519 22.4297C84.032 22.5041 83.7645 22.5723 83.5523 22.6405L84.0197 25.6163C84.5297 25.4329 85.0576 25.304 85.5942 25.2319C86.205 25.1395 86.8218 25.094 87.4394 25.0955C88.3743 25.0955 89.0304 25.2856 89.4075 25.6658C89.5993 25.8657 89.7485 26.103 89.8458 26.3632C89.9431 26.6233 89.9865 26.9009 89.9735 27.1786V27.5257C89.6792 27.4462 89.3788 27.3923 89.0755 27.3645C88.6546 27.3195 88.2316 27.2988 87.8084 27.3026C87.1223 27.2995 86.4378 27.3702 85.7665 27.5133C85.1495 27.637 84.5584 27.8677 84.0197 28.1953C83.5097 28.5046 83.0864 28.9399 82.7897 29.46C82.4697 30.0524 82.3125 30.7201 82.3346 31.3942C82.3142 32.0851 82.4487 32.7717 82.7282 33.4029C82.9822 33.9383 83.3728 34.396 83.8599 34.7296C84.394 35.0855 84.9913 35.3338 85.6189 35.4611C86.3674 35.6167 87.1303 35.6915 87.8945 35.6843C89.0265 35.6966 90.1577 35.6178 91.2773 35.4487C92.2122 35.2916 92.9421 35.1553 93.4669 35.0395V27.3521C93.4838 26.6086 93.4011 25.8663 93.2208 25.1451ZM89.9735 32.7333C89.7766 32.7644 89.5152 32.7891 89.1862 32.8078C88.8571 32.8263 88.5127 32.8325 88.1529 32.8325C87.6042 32.8606 87.0575 32.7452 86.566 32.4977C86.3684 32.3712 86.2096 32.1917 86.1075 31.9792C86.0054 31.7668 85.964 31.5298 85.9879 31.295C85.9777 31.0327 86.0463 30.7735 86.1848 30.551C86.3204 30.3484 86.5073 30.1857 86.726 30.0799C86.9773 29.9561 87.2477 29.8765 87.5255 29.8444C87.8476 29.8009 88.1723 29.7801 88.4972 29.7823C88.7686 29.7834 89.0397 29.7999 89.3091 29.8319C89.5323 29.8524 89.754 29.8855 89.9735 29.9312V32.7333Z" fill="#252525"/>
<path d="M104.686 19.8354V22.6623C104.289 22.485 103.877 22.3439 103.455 22.2407C103.008 22.1366 102.549 22.0867 102.09 22.092C101.246 22.0752 100.409 22.2357 99.6299 22.5632C98.9288 22.8675 98.3091 23.3349 97.8216 23.927C97.3049 24.5672 96.9201 25.3049 96.69 26.0969C96.4173 27.0263 96.2845 27.9919 96.2963 28.9611C96.282 29.919 96.4361 30.8719 96.7515 31.7757C97.0323 32.574 97.4813 33.3016 98.0677 33.9083C98.6656 34.5103 99.388 34.9718 100.183 35.2598C101.099 35.5869 102.066 35.7466 103.037 35.7309C103.48 35.7309 103.944 35.7092 104.427 35.669C104.91 35.6286 105.387 35.5729 105.854 35.5078C106.322 35.4427 106.777 35.3621 107.195 35.2723C107.613 35.1823 107.998 35.0862 108.327 34.987V19.2092L104.686 19.8354ZM104.686 32.4576C104.504 32.4918 104.277 32.5197 103.997 32.5444C103.717 32.5692 103.412 32.5816 103.074 32.5816C102.075 32.5816 101.318 32.2344 100.811 31.5401C100.267 30.7301 99.9998 29.764 100.048 28.7875C100.048 26.4069 100.917 25.2166 102.656 25.2166C103.034 25.2166 103.41 25.2666 103.775 25.3653C104.092 25.4426 104.394 25.568 104.673 25.7373L104.686 32.4576Z" fill="#252525"/>
<path d="M121.858 23.7192C120.792 22.5846 119.34 22.0185 117.503 22.0205C116.714 22.0244 115.933 22.1801 115.202 22.4793C114.459 22.7736 113.784 23.2212 113.222 23.7936C112.618 24.4149 112.145 25.153 111.832 25.9634C111.461 26.9315 111.281 27.9635 111.303 29.0012C111.296 29.9101 111.433 30.8142 111.709 31.6794C111.965 32.4791 112.393 33.2117 112.964 33.8244C113.569 34.4526 114.304 34.9393 115.116 35.2503C116.087 35.617 117.118 35.7937 118.155 35.7711C118.615 35.7711 119.075 35.7462 119.532 35.6966C119.992 35.6471 120.422 35.5851 120.824 35.5107C121.193 35.444 121.559 35.3571 121.919 35.2503C122.189 35.1695 122.453 35.0657 122.706 34.9403L122.214 31.9398C121.7 32.1511 121.163 32.3049 120.615 32.3986C119.962 32.5228 119.299 32.5851 118.634 32.5845C117.749 32.6306 116.872 32.3965 116.125 31.9149C115.826 31.7113 115.577 31.4431 115.394 31.13C115.211 30.8169 115.099 30.4667 115.067 30.1048H123.371C123.385 29.9063 123.404 29.6769 123.419 29.4227C123.435 29.1685 123.444 28.9298 123.444 28.716C123.453 26.5152 122.923 24.8496 121.858 23.7192ZM115.067 27.5753C115.116 27.2586 115.194 26.9473 115.301 26.6454C115.4 26.3497 115.554 26.0761 115.756 25.8394C115.959 25.6018 116.211 25.4115 116.494 25.2815C116.827 25.1323 117.188 25.0603 117.552 25.0707C117.921 25.0585 118.288 25.1349 118.622 25.2938C118.896 25.4329 119.139 25.6269 119.336 25.8643C119.525 26.0988 119.667 26.3684 119.754 26.6577C119.844 26.9601 119.897 27.2724 119.914 27.5877L115.067 27.5753Z" fill="#252525"/>
<path d="M133.518 28.493C133.518 27.3027 133.366 26.4595 133.063 25.9635C132.759 25.4676 132.238 25.2196 131.5 25.2196C131.27 25.2196 131.033 25.2196 130.787 25.2568C130.541 25.2941 130.304 25.3095 130.074 25.3436V35.4116H126.408V22.8142C126.715 22.7305 127.084 22.6438 127.502 22.5538C127.921 22.4639 128.363 22.3802 128.831 22.3058C129.299 22.2314 129.779 22.1725 130.271 22.1322C130.763 22.092 131.245 22.0703 131.722 22.0703C132.496 22.0422 133.269 22.1642 133.997 22.4298C134.521 22.6336 135.007 22.9225 135.437 23.2853C136.525 22.5303 137.806 22.1084 139.128 22.0703C139.997 22.0398 140.863 22.1874 141.674 22.5042C142.302 22.7675 142.851 23.1955 143.261 23.7441C143.668 24.303 143.945 24.9471 144.072 25.6287C144.226 26.4293 144.301 27.2435 144.294 28.059V35.424H140.633V28.493C140.633 27.3027 140.483 26.4595 140.179 25.9635C139.875 25.4676 139.354 25.2196 138.616 25.2196C138.337 25.2338 138.059 25.2839 137.793 25.3684C137.484 25.4481 137.19 25.5736 136.919 25.7404C137.036 26.1321 137.109 26.5354 137.141 26.943C137.174 27.3646 137.19 27.8141 137.19 28.2945V35.424H133.518V28.493Z" fill="#252525"/>
<path d="M158.859 22.3677C158.116 24.8785 157.343 27.2344 156.54 29.4353C155.736 31.636 154.857 33.7687 153.901 35.8331C153.603 36.4906 153.257 37.1248 152.865 37.7302C152.552 38.2134 152.171 38.6479 151.733 39.0196C151.322 39.3572 150.848 39.61 150.34 39.7636C149.751 39.9296 149.141 40.0088 148.528 39.9993C147.995 40.0025 147.464 39.9485 146.942 39.838C146.534 39.7528 146.134 39.6326 145.746 39.4784L146.386 36.5275C146.714 36.6456 147.051 36.7367 147.394 36.8002C147.699 36.8502 148.007 36.8751 148.316 36.8746C148.592 36.8926 148.868 36.8546 149.129 36.763C149.389 36.6715 149.628 36.5281 149.833 36.3414C150.227 35.9154 150.532 35.4136 150.731 34.866C149.889 33.2128 149.053 31.353 148.218 29.2864C147.313 27.0234 146.527 24.714 145.863 22.3677H149.75C149.916 23.0125 150.109 23.711 150.331 24.4631C150.553 25.2133 150.787 25.9759 151.035 26.7446C151.284 27.5133 151.533 28.2603 151.788 28.9888C152.044 29.7173 152.286 30.3776 152.518 30.9727C152.732 30.3776 152.954 29.7142 153.185 28.9888C153.415 28.2635 153.64 27.5133 153.865 26.7446C154.089 25.9759 154.301 25.2133 154.507 24.4631C154.713 23.7131 154.898 23.0125 155.061 22.3677H158.859Z" fill="#252525"/>
<path d="M67.6837 8.97699C67.5194 8.34663 67.2023 7.76723 66.7611 7.29072C66.2782 6.7976 65.6828 6.43144 65.0268 6.2244C64.1505 5.95407 63.2366 5.82846 62.3205 5.85243C61.8931 5.85243 61.4718 5.87413 61.0536 5.91442C60.6353 5.95472 60.2387 6.00431 59.8603 6.06321C59.4821 6.12211 59.1346 6.1872 58.8148 6.2616C58.4949 6.33598 58.2273 6.40728 58.0152 6.47238L58.4826 9.44815C58.9951 9.2658 59.5248 9.137 60.0634 9.06378C60.6743 8.97299 61.291 8.9274 61.9084 8.92739C62.8433 8.92739 63.4994 9.11751 63.8765 9.49775C64.0672 9.69823 64.215 9.93579 64.3112 10.1959C64.4075 10.456 64.4501 10.7332 64.4363 11.0104V11.3576C64.1418 11.2796 63.8415 11.2257 63.5383 11.1964C63.1173 11.153 62.6945 11.1323 62.2713 11.1344C61.5853 11.133 60.9009 11.2036 60.2294 11.3452C59.6128 11.4702 59.0219 11.7009 58.4826 12.0272C57.9727 12.3365 57.5493 12.7718 57.2526 13.2919C56.9333 13.8845 56.7762 14.5521 56.7974 15.2261C56.777 15.917 56.9116 16.6036 57.1911 17.2348C57.4443 17.7707 57.835 18.2287 58.3227 18.5615C58.8568 18.9173 59.4541 19.1657 60.0818 19.293C60.8303 19.4486 61.5931 19.5234 62.3574 19.5163C63.4895 19.5301 64.6208 19.4513 65.7401 19.2806C66.675 19.1215 67.4049 18.9851 67.9298 18.8714V11.184C67.9464 10.4405 67.8637 9.69819 67.6837 8.97699ZM64.4363 16.5652C64.1755 16.6056 63.9127 16.6304 63.649 16.6396C63.32 16.6396 62.9755 16.6644 62.6158 16.6644C62.0671 16.6925 61.5204 16.5771 61.029 16.3296C60.831 16.2033 60.672 16.0238 60.5699 15.8113C60.4677 15.5988 60.4265 15.3618 60.4507 15.1269C60.4407 14.8646 60.5092 14.6053 60.6476 14.383C60.7833 14.1803 60.9701 14.0176 61.1888 13.9118C61.4407 13.7895 61.7108 13.7098 61.9885 13.6763C62.3106 13.6342 62.6353 13.6136 62.9602 13.6142C63.2315 13.6153 63.5025 13.6318 63.772 13.6639C64.0796 13.6979 64.2886 13.729 64.4363 13.763V16.5652Z" fill="#252525"/>
<path d="M79.0747 9.46022C78.7456 9.37653 78.3613 9.28974 77.9184 9.19984C77.4484 9.10685 76.9705 9.06116 76.4915 9.06345C76.2158 9.06728 75.9406 9.08798 75.6673 9.12545C75.4223 9.15164 75.1796 9.19724 74.9416 9.26184V19.2307H71.2759V6.89362C72.0363 6.63182 72.8103 6.41243 73.5946 6.23647C74.5763 6.02008 75.579 5.91609 76.5837 5.92649C76.7806 5.92649 77.0174 5.92649 77.2973 5.96369C77.5771 6.00088 77.8538 6.02259 78.1336 6.06288C78.4136 6.10318 78.6903 6.15277 78.9701 6.21167C79.214 6.25894 79.453 6.32952 79.6836 6.42245L79.0747 9.46022Z" fill="#252525"/>
<path d="M80.7964 12.7212C80.79 11.8124 80.9441 10.9097 81.2516 10.0554C81.5414 9.25038 81.989 8.51243 82.5678 7.88554C83.157 7.25432 83.8688 6.75208 84.6589 6.41006C85.5461 6.03364 86.5012 5.84784 87.4636 5.86449C88.6895 5.84998 89.9048 6.09499 91.0308 6.58363L90.2682 9.53461C89.8988 9.39431 89.5208 9.27835 89.1364 9.18744C88.6847 9.0836 88.2222 9.03366 87.7588 9.03865C86.6763 9.03865 85.8686 9.37756 85.3355 10.0554C84.773 10.8297 84.4908 11.775 84.5359 12.7336C84.5359 13.9094 84.786 14.8187 85.2862 15.4613C85.7865 16.1041 86.6599 16.4264 87.9064 16.4285C88.3846 16.426 88.8618 16.3846 89.3333 16.3045C89.8147 16.2292 90.2856 16.096 90.7356 15.9077L91.2523 18.9331C90.7355 19.1419 90.2 19.2996 89.6531 19.4042C88.9564 19.5426 88.2475 19.6091 87.5373 19.6026C86.4956 19.6285 85.459 19.4473 84.4868 19.0694C83.6874 18.7494 82.9688 18.2538 82.3832 17.6188C81.8268 16.9945 81.4151 16.2533 81.1778 15.449C80.9151 14.5642 80.7865 13.6446 80.7964 12.7212Z" fill="#252525"/>
<path d="M104.882 11.8783V16.7016L101.216 17.3215V12.3246C101.216 11.1344 101.063 10.2912 100.761 9.79526C100.46 9.2993 99.8971 9.05131 99.0761 9.05131C98.7663 9.04896 98.4573 9.07804 98.1535 9.13811C97.8685 9.1939 97.6102 9.2559 97.3785 9.3241V17.9848L93.7129 18.6048V0.595155L97.3785 0V6.24913C97.6888 6.14987 98.0052 6.07116 98.3257 6.01354C98.6945 5.94063 99.0692 5.90327 99.445 5.90195C100.338 5.87389 101.228 6.02129 102.065 6.33592C102.72 6.59541 103.297 7.0228 103.738 7.57583C104.169 8.1297 104.471 8.7736 104.624 9.46049C104.803 10.2536 104.889 11.065 104.882 11.8783Z" fill="#252525"/>
<path d="M111.868 6.1994V15.511L108.203 16.1342V6.1994H111.868Z" fill="#252525"/>
<path d="M119.028 16.5898C119.511 16.6201 119.997 16.5527 120.454 16.3914C120.594 16.3216 120.708 16.2104 120.783 16.0731C120.858 15.9356 120.889 15.7785 120.872 15.6226C120.861 15.456 120.806 15.2956 120.712 15.1582C120.618 15.0207 120.488 14.9112 120.338 14.8416C119.811 14.5418 119.259 14.2888 118.689 14.0852C118.157 13.8897 117.636 13.6662 117.127 13.4156C116.688 13.2043 116.285 12.9239 115.934 12.5849C115.603 12.2582 115.343 11.8654 115.171 11.4318C114.978 10.9172 114.886 10.3698 114.901 9.81992C114.879 9.26247 114.991 8.70806 115.227 8.2032C115.462 7.69835 115.814 7.25781 116.254 6.91855C117.156 6.20973 118.394 5.85429 119.969 5.85222C120.728 5.8501 121.486 5.92068 122.232 6.06301C122.818 6.16704 123.393 6.3205 123.954 6.52177L123.315 9.39835C122.859 9.24067 122.395 9.10821 121.925 9.00158C121.371 8.88072 120.806 8.8225 120.239 8.828C119.091 8.828 118.517 9.15038 118.517 9.79513C118.515 9.93107 118.54 10.0661 118.591 10.1919C118.662 10.3293 118.768 10.4449 118.898 10.5267C119.093 10.6605 119.299 10.7767 119.513 10.8738C119.83 11.0276 120.155 11.1652 120.485 11.2861C121.17 11.5341 121.836 11.8314 122.478 12.1757C122.935 12.4172 123.35 12.7311 123.708 13.1057C124 13.4338 124.213 13.8236 124.335 14.2464C124.466 14.7132 124.528 15.1967 124.519 15.6816C124.519 16.9691 124.041 17.9423 123.081 18.6016C122.121 19.2608 120.764 19.5904 119.009 19.5904C118.045 19.6064 117.082 19.5023 116.143 19.2805C115.603 19.1539 115.073 18.9882 114.556 18.7845L115.171 15.7839C115.793 16.0326 116.435 16.2276 117.09 16.3666C117.726 16.5086 118.376 16.5834 119.028 16.5898Z" fill="#252525"/>
<path d="M109.971 0.343811H110.085H110.153H110.214H110.27L110.38 0.365509C110.578 0.409256 110.765 0.489104 110.934 0.601091C111.039 0.670096 111.136 0.751238 111.223 0.842873L111.278 0.904868V0.923467L112.143 1.96188L111.42 2.88872L111.297 3.03751L111.266 3.0747L111.152 3.20799L110.033 4.55638L108.911 3.20799L108.797 3.0747L108.766 3.03751L108.649 2.89491L107.893 1.98358L108.769 0.932766L108.8 0.898669L108.818 0.870771C108.902 0.781335 108.996 0.702251 109.098 0.635188C109.25 0.534986 109.417 0.460634 109.593 0.415106C109.619 0.405978 109.646 0.399741 109.673 0.396507C109.718 0.384978 109.763 0.376692 109.809 0.371709H109.873H109.959L109.971 0.343811Z" fill="#FD0075"/>
<path d="M165.634 16.9697C163.97 16.9697 162.62 18.3266 162.62 20C162.62 21.6735 163.97 23.0303 165.634 23.0303C167.299 23.0303 168.648 21.6735 168.648 20C168.648 18.3266 167.299 16.9697 165.634 16.9697ZM165.634 22.5163C164.253 22.5163 163.133 21.3894 163.133 20C163.133 18.6107 164.253 17.4838 165.634 17.4838C167.017 17.4838 168.137 18.6107 168.137 20C168.137 21.3894 167.017 22.5163 165.634 22.5163ZM166.224 20.2523C166.458 20.1657 166.751 19.9209 166.751 19.4461C166.751 18.9644 166.445 18.5593 165.78 18.5593H164.734C164.704 18.5593 164.679 18.5837 164.679 18.6134V21.3867C164.679 21.4164 164.704 21.4408 164.734 21.4408H165.1C165.129 21.4408 165.153 21.4164 165.153 21.3867V20.3329H165.75L166.253 21.4096C166.261 21.4286 166.281 21.4408 166.301 21.4408H166.718C166.727 21.4409 166.736 21.4386 166.745 21.4341C166.752 21.4297 166.759 21.4232 166.764 21.4154C166.769 21.4075 166.771 21.3987 166.771 21.3895C166.772 21.3803 166.77 21.3712 166.765 21.3629L166.224 20.2523ZM165.702 19.9526H165.153V18.9515H165.715C166.038 18.9515 166.259 19.1227 166.259 19.4623C166.259 19.7795 166.059 19.9526 165.702 19.9526Z" fill="#252525"/>
</g>
<defs>
<clipPath id="clip0_604_161">
<rect width="168.794" height="40" fill="white"/>
</clipPath>
</defs>
</svg>
