<?xml version="1.0" encoding="UTF-8" standalone="no"?>
<!-- Created with Inkscape (http://www.inkscape.org/) -->

<svg
   width="58.576096mm"
   height="33.837475mm"
   viewBox="0 0 58.576095 33.837475"
   version="1.1"
   id="svg1"
   xml:space="preserve"
   xmlns:inkscape="http://www.inkscape.org/namespaces/inkscape"
   xmlns:sodipodi="http://sodipodi.sourceforge.net/DTD/sodipodi-0.dtd"
   xmlns="http://www.w3.org/2000/svg"
   xmlns:svg="http://www.w3.org/2000/svg"><sodipodi:namedview
     id="namedview1"
     pagecolor="#ffffff"
     bordercolor="#000000"
     borderopacity="0.25"
     inkscape:showpageshadow="false"
     inkscape:pageopacity="0.0"
     inkscape:pagecheckerboard="0"
     inkscape:deskcolor="#d1d1d1"
     inkscape:document-units="mm"
     showgrid="false"
     showborder="false"
     borderlayer="true"><inkscape:page
       x="0"
       y="0"
       width="58.576096"
       height="33.837475"
       id="page2"
       margin="0"
       bleed="0" /></sodipodi:namedview><defs
     id="defs1" /><g
     inkscape:label="Layer 1"
     inkscape:groupmode="layer"
     id="layer1"
     transform="translate(-68.287035,-152.95699)"><path
       style="fill:#000000"
       d="m 110.45502,186.48044 c 0.008,-0.2353 -0.0143,-0.47342 -0.0488,-0.52916 -0.0344,-0.0557 -0.0223,-0.10135 0.027,-0.10135 0.0493,0 0.0938,0.0286 0.0989,0.0635 0.051,0.3487 0.0442,0.67863 -0.0169,0.82142 -0.054,0.12619 -0.0704,0.0569 -0.0603,-0.25441 z m -0.13168,-1.1974 c -0.0946,-0.84673 -0.22642,-4.52693 -0.26327,-7.34944 -0.0194,-1.49014 -0.0588,-3.50944 -0.0874,-4.48734 -0.0286,-0.9779 -0.0594,-2.37491 -0.0684,-3.10447 -0.009,-0.72957 -0.0418,-1.35195 -0.073,-1.38307 -0.0311,-0.0311 -0.18354,-8.3e-4 -0.33867,0.0673 -0.46571,0.20462 -1.10364,0.41482 -2.3987,0.79038 -0.23284,0.0675 -0.97579,0.18178 -1.651,0.25391 -3.11344,0.33261 -4.86156,0.0881 -6.041309,-0.84509 l -0.30555,-0.24169 -0.24432,0.20559 c -0.62644,0.52711 -1.14036,0.48763 -1.4362,-0.11033 -0.1305,-0.26375 -0.15441,-0.44714 -0.12036,-0.92302 0.0527,-0.73633 -0.0546,-0.7686 -0.36615,-0.11012 -0.12587,0.26606 -0.34771,0.66124 -0.49298,0.87817 -0.14528,0.21693 -0.32904,0.51359 -0.40836,0.65925 -0.17421,0.31987 -0.43338,0.34647 -0.61878,0.0635 -0.0726,-0.11072 -0.19509,-0.52906 -0.27232,-0.92964 -0.13627,-0.70692 -0.14513,-0.72405 -0.30121,-0.5828 -0.24528,0.22197 -0.33607,0.43639 -0.43527,1.02793 -0.0926,0.55242 -0.24581,0.7582 -0.49359,0.66312 -0.0946,-0.0363 -0.15802,-0.29113 -0.23582,-0.94763 -0.0585,-0.49389 -0.13384,-0.91491 -0.16734,-0.93562 -0.0937,-0.0579 -0.52617,0.67349 -0.71688,1.21222 -0.13198,0.37284 -0.21416,0.48825 -0.36264,0.50933 -0.14858,0.0211 -0.2196,-0.0363 -0.31414,-0.254 -0.0672,-0.15469 -0.12365,-0.2292 -0.12547,-0.16557 -0.008,0.29328 -1.10236,1.11962 -1.81277,1.36931 -0.67308,0.23657 -1.03291,0.1289 -1.35582,-0.4057 -0.28072,-0.46476 -0.29882,-0.85309 -0.0649,-1.39263 0.24293,-0.56027 0.6835,-0.78669 1.50269,-0.77226 0.76416,0.0135 1.55128,0.37252 1.2393,0.56534 -0.0357,0.022 -0.26392,-0.0116 -0.50724,-0.0747 -0.61428,-0.15934 -1.25743,-0.0533 -1.51862,0.25033 -0.359,0.41736 -0.35932,0.86416 -9.1e-4,1.28084 l 0.19319,0.22459 0.58937,-0.17804 c 0.67121,-0.20276 1.21418,-0.64627 1.60258,-1.30903 0.25145,-0.42907 0.39495,-0.48466 0.57767,-0.22379 0.11335,0.16183 0.12598,0.15308 0.27469,-0.1905 0.0857,-0.19807 0.212,-0.42703 0.28058,-0.50881 0.0686,-0.0818 0.10907,-0.16269 0.09,-0.17981 -0.0501,-0.0449 -4.30877,0.10582 -4.38882,0.15529 -0.0368,0.0228 -0.5391,0.0651 -1.11613,0.094 -0.57702,0.0289 -1.18249,0.087 -1.34547,0.12893 -0.16299,0.042 -0.46779,0.0771 -0.67734,0.0781 -0.62878,0.003 -0.64656,0.0405 -0.42611,0.90101 0.10556,0.41204 0.18977,0.88252 0.18713,1.0455 -0.009,0.54755 -0.11406,1.05758 -0.23829,1.15521 -0.12047,0.0947 -0.45256,0.0631 -0.45558,-0.0433 -0.008,-0.28795 -0.2576,-1.64067 -0.32618,-1.7688 -0.11121,-0.20781 -0.36894,-0.37269 -0.85763,-0.5487 -1.16031,-0.41788 -2.74996,-0.4704 -4.86834,-0.16086 -1.03979,0.15194 -1.93037,0.26182 -2.54,0.31337 -0.32596,0.0276 -0.706962,0.0839 -0.846662,0.12515 -0.1397,0.0413 -0.53975,0.0977 -0.889,0.12539 -0.34925,0.0277 -0.7874,0.0853 -0.973666,0.12802 -0.186267,0.0427 -0.548468,0.0786 -0.804893,0.0797 -0.256424,0.001 -0.580274,0.0342 -0.719666,0.0734 -0.139393,0.0393 -0.391797,0.0547 -0.560899,0.0342 -0.240071,-0.029 -0.299111,-0.069 -0.269374,-0.18277 0.02939,-0.11236 0.196329,-0.16677 0.730792,-0.23818 0.380988,-0.0509 0.990755,-0.15169 1.355037,-0.22398 0.364282,-0.0723 0.954832,-0.15205 1.312333,-0.17725 0.357502,-0.0252 0.840503,-0.0828 1.073336,-0.12789 0.421192,-0.0817 1.012482,-0.15259 1.375832,-0.16503 0.10478,-0.004 0.1905,-0.0492 0.1905,-0.1013 0,-0.0679 -0.25833,-0.0773 -0.91017,-0.0331 -0.500587,0.0339 -0.986362,0.0777 -1.079495,0.0972 -0.09313,0.0195 -0.486315,0.0357 -0.873736,0.0359 -0.82896,5.3e-4 -3.160201,0.29582 -4.066035,0.51502 -0.472916,0.11444 -0.612141,0.21787 -0.438089,0.32544 0.06944,0.0429 0.144051,0.0443 0.169474,0.003 0.02498,-0.0404 0.159334,-0.10008 0.298567,-0.13258 0.242848,-0.0567 0.24626,-0.0536 0.08382,0.0753 -0.167729,0.13309 -0.167529,0.13439 0.02117,0.13705 0.117408,0.002 0.1905,0.0549 0.1905,0.13875 0,0.0882 -0.04624,0.11832 -0.131403,0.0856 -0.07227,-0.0277 -0.378126,-0.0155 -0.679676,0.0272 -0.73327,0.10384 -1.252075,-0.0338 -1.288494,-0.34192 -0.02321,-0.19635 0.02783,-0.23174 0.635,-0.44022 1.102601,-0.3786 2.218652,-0.54099 5.613239,-0.81675 0.675217,-0.0548 2.637368,-0.11613 4.360338,-0.13618 1.72296,-0.02 3.34221,-0.051 3.59833,-0.0689 0.9805,-0.0683 1.61546,-0.16544 1.67195,-0.25592 0.0323,-0.0517 0.0598,-0.41373 0.0612,-0.80443 0.002,-0.57836 0.0296,-0.72748 0.14833,-0.80243 0.24288,-0.15332 0.33999,0.0498 0.43269,0.90475 l 0.0863,0.7963 0.39789,-0.0191 c 0.21884,-0.0105 0.43829,-0.0441 0.48767,-0.0746 0.0494,-0.0305 0.36843,-0.0729 0.70901,-0.0942 0.34058,-0.0213 0.77164,-0.0551 0.95791,-0.0752 0.18626,-0.02 0.73871,-0.0614 1.22766,-0.0919 0.48895,-0.0305 1.0795,-0.0697 1.31234,-0.0872 0.23283,-0.0175 0.99483,-0.0526 1.69333,-0.078 1.9095,-0.0694 4.24884,-0.15046 4.86833,-0.16864 0.30722,-0.009 0.63449,-0.07 0.74084,-0.13803 0.16058,-0.10274 0.21907,-0.10404 0.37244,-0.008 0.12263,0.0766 0.44422,0.11026 0.98633,0.10331 0.70566,-0.009 0.86924,-0.0413 1.33299,-0.26259 0.656959,-0.31354 0.864539,-0.32256 0.935299,-0.0406 0.0292,0.11642 0.11567,0.21523 0.19212,0.21959 0.0764,0.004 0.92004,0.007 1.87465,0.006 0.95462,-0.001 2.42147,0.001 3.25967,0.005 0.8382,0.004 1.80022,0.004 2.13783,-0.001 0.48346,-0.007 0.61384,0.0174 0.61384,0.11394 0,0.15422 0.13663,0.16063 0.19476,0.009 0.0278,-0.0724 0.13472,-0.10011 0.29537,-0.0765 0.1385,0.0203 0.27197,0.004 0.29661,-0.0355 0.0246,-0.0399 0.0677,-0.8722 0.0958,-1.84964 0.028,-0.97744 0.0757,-2.44391 0.10601,-3.25882 0.0303,-0.81492 0.0584,-3.13902 0.0624,-5.16467 l 0.007,-3.683 h 0.21167 c 0.20222,0 0.2164,0.034 0.31794,0.762 0.11132,0.79814 0.0791,5.13207 -0.0582,7.83167 -0.0367,0.72178 -0.0732,2.25337 -0.0811,3.40352 -0.0132,1.92876 -0.003,2.09696 0.13635,2.16532 0.18671,0.0919 1.13971,0.0464 1.20414,-0.0574 0.0259,-0.0418 0.18509,-0.076 0.35366,-0.0759 0.74125,2e-4 3.56968,-2.46052 4.11948,-3.58392 0.59024,-1.20603 0.70487,-1.66393 0.7259,-2.89979 0.0106,-0.6252 -0.0115,-0.76736 -0.13157,-0.84383 -0.11365,-0.0724 -0.18685,-0.052 -0.34412,0.0957 -0.10987,0.10322 -0.23541,0.18679 -0.27897,0.18571 -0.0436,-0.001 0.0706,-0.13683 0.25363,-0.30167 0.35567,-0.32026 0.65589,-0.34141 0.87019,-0.0613 0.25598,0.33461 0.21115,1.67738 -0.095,2.84508 -0.13372,0.51001 -0.51834,1.3802 -0.64452,1.45818 -0.0474,0.0293 -0.23308,0.25206 -0.41253,0.49496 -0.17944,0.24291 -0.47387,0.59256 -0.65429,0.77701 -0.44686,0.45686 -1.77987,1.56303 -1.88355,1.56303 -0.0462,0 -0.16533,0.1143 -0.26481,0.254 -0.0995,0.1397 -0.22957,0.254 -0.28909,0.254 -0.15221,0 -1.45728,0.78615 -1.47581,0.889 -0.008,0.0466 0.0519,0.0886 0.13398,0.0933 0.37535,0.0218 1.19307,0.13678 1.46159,0.20547 0.43984,0.11252 1.6866,0.34242 2.07433,0.3825 0.18627,0.0193 0.49107,0.0725 0.67734,0.11829 1.04108,0.256 3.49641,0.62373 4.826,0.72277 0.23283,0.0173 0.86148,0.0716 1.397,0.12047 0.53551,0.0489 1.48801,0.0727 2.11666,0.0528 l 1.143,-0.0361 0.0469,-0.6181 c 0.0631,-0.83082 0.002,-0.89434 -0.55457,-0.57596 -0.49727,0.2845 -0.92835,0.32593 -1.31437,0.12631 -0.46264,-0.23924 -0.56255,-0.75491 -0.21382,-1.10364 0.27508,-0.27507 0.7343,-0.27361 1.41879,0.005 0.53652,0.218 0.62071,0.20734 0.6735,-0.0853 0.0225,-0.12472 0.0972,-0.16934 0.28339,-0.16934 0.24645,0 0.2535,0.0116 0.27897,0.46015 0.02,0.35165 0.0799,0.52416 0.254,0.73165 0.41756,0.49751 0.5242,0.6618 0.5242,0.80756 0,0.13817 -0.44835,0.58298 -0.58761,0.58298 -0.0366,0 -0.0928,0.40957 -0.12484,0.91016 -0.10105,1.5797 -0.21721,2.3989 -0.4006,2.82521 -0.0978,0.22731 -0.21152,0.41329 -0.25273,0.41329 -0.0413,0 -0.0545,-0.35098 -0.0293,-0.78316 0.0363,-0.62244 0.0601,-2.33844 0.0432,-3.11545 -0.002,-0.10971 -0.12985,-0.12831 -0.78601,-0.11468 -0.43074,0.009 -0.80222,0.0233 -0.8255,0.0318 -0.24602,0.0902 -3.84605,-0.10152 -4.78367,-0.25471 -0.2794,-0.0456 -1.1176,-0.18185 -1.86266,-0.30267 -1.74437,-0.28288 -2.01276,-0.32866 -3.13267,-0.53442 -2.58294,-0.47454 -3.54226,-0.58924 -3.63764,-0.43493 -0.0642,0.10384 -0.0686,6.58752 -0.005,6.69113 0.0811,0.13119 0.0624,10.34714 -0.0191,10.42861 -0.0525,0.0525 -0.10134,-0.0939 -0.13663,-0.40972 z m -5.97523,-15.4774 c 0.71715,-0.0515 0.94001,-0.0879 2.11083,-0.34509 0.64946,-0.14266 1.85522,-0.49296 2.159,-0.62724 0.0931,-0.0412 0.32173,-0.12305 0.508,-0.18196 0.18626,-0.0589 0.39223,-0.15446 0.45771,-0.21234 0.16168,-0.14291 0.0601,-0.16038 -1.93938,-0.33366 -1.70992,-0.14818 -6.00943,-0.21515 -6.29567,-0.0981 -0.14782,0.0605 -0.14895,0.0772 -0.0187,0.27603 0.10194,0.15558 0.11616,0.25375 0.0537,0.37049 -0.10066,0.18809 -0.54649,0.46441 -0.8873,0.54995 -0.16056,0.0403 -0.21414,0.0893 -0.1585,0.14495 0.15506,0.15505 1.41392,0.4144 2.26876,0.46739 0.46567,0.0289 0.86151,0.0659 0.87964,0.0822 0.0181,0.0163 0.0589,0.0137 0.0905,-0.006 0.0316,-0.0196 0.37875,-0.0586 0.77136,-0.0868 z m 22.16128,-0.52849 c -0.0162,-0.13999 -0.0856,-0.24326 -0.17495,-0.2602 -0.11507,-0.0218 -0.14817,0.03 -0.14817,0.23211 0,0.20655 0.0361,0.2602 0.17496,0.2602 0.1408,0 0.16972,-0.0453 0.14816,-0.23211 z m -26.26736,-0.41093 c 0.43066,-0.25239 0.46209,-0.344 0.15773,-0.45972 -0.32949,-0.12527 -0.589569,-0.0997 -0.810609,0.0796 l -0.19988,0.16214 0.20526,0.21886 c 0.11289,0.12037 0.2204,0.21886 0.23892,0.21886 0.0185,0 0.202369,-0.0989 0.408579,-0.21971 z m -1.507019,-0.25694 c 0.0638,-0.0638 0.15006,-0.11602 0.19166,-0.11602 0.0416,0 0.11812,-0.0794 0.17003,-0.17637 0.0758,-0.1416 0.0641,-0.20989 -0.0594,-0.34632 -0.14564,-0.16093 -0.14599,-0.17563 -0.007,-0.27745 0.0809,-0.0591 0.14705,-0.1319 0.14705,-0.16169 0,-0.0689 -0.95764,-0.0712 -1.13608,-0.003 -0.16099,0.0618 -0.18613,0.78958 -0.0416,1.20419 l 0.0923,0.26485 0.26337,-0.13619 c 0.14485,-0.0749 0.31557,-0.1884 0.37939,-0.25222 z m -2.44178,-0.15435 c 0.0491,-0.0953 0.14491,-0.33526 0.21302,-0.53317 0.11385,-0.33081 0.11219,-0.36046 -0.0206,-0.36768 -0.2222,-0.0121 -0.90372,0.0202 -0.92795,0.0439 -0.0118,0.0116 0.0149,0.13207 0.0594,0.26768 0.0445,0.13561 0.1222,0.40798 0.17267,0.60527 0.0829,0.32404 0.10735,0.34897 0.25302,0.25799 0.0887,-0.0554 0.20139,-0.1787 0.25045,-0.27403 z m -12.05929,-0.004 c 0,-0.20124 -0.024,-0.21167 -0.48684,-0.21167 -0.26776,0 -0.48683,0.0209 -0.48683,0.0465 0,0.0656 0.69347,0.37275 0.84667,0.375 0.0795,10e-4 0.127,-0.0773 0.127,-0.20981 z m 40.773819,-0.34688 c 0.14273,-0.17199 0.10106,-0.1901 -0.50535,-0.21964 -0.44188,-0.0215 -0.55371,6.6e-4 -0.63292,0.12558 -0.0792,0.12493 -0.0601,0.17922 0.10858,0.30748 0.18816,0.1431 0.23419,0.14576 0.56626,0.0326 0.1988,-0.0677 0.40734,-0.17845 0.46343,-0.24603 z m -30.592639,-0.1787 c 0.0582,-0.12535 0.0741,-0.25966 0.0353,-0.29845 -0.10986,-0.10985 -0.36882,0.0253 -0.31537,0.16455 0.026,0.0676 0.0472,0.17703 0.0472,0.24307 0,0.19292 0.11831,0.13745 0.23285,-0.10917 z m 16.692019,-0.17292 c 0.70895,-0.34815 0.7908,-0.50955 0.2413,-0.47583 -0.19791,0.0122 -0.48366,0.0242 -0.635,0.0267 -0.26382,0.004 -0.27517,0.0186 -0.27517,0.34329 0,0.19879 0.0402,0.33866 0.0974,0.33866 0.0536,0 0.31073,-0.10477 0.5715,-0.23283 z m -1.17817,-0.0423 c -0.003,-0.44666 0.20921,-0.43044 -4.79468,-0.36622 -3.85263,0.0494 -4.66539,0.0802 -4.76773,0.18056 -0.21478,0.21056 0.008,0.26249 0.80071,0.18622 0.4191,-0.0404 1.77165,-0.0861 3.00567,-0.10174 2.06315,-0.0261 2.67535,3.2e-4 4.61433,0.19915 1.13963,0.11686 1.14316,0.11656 1.1417,-0.098 z m -13.122029,0.0212 c 0,-0.0466 -0.0168,-0.0847 -0.0373,-0.0847 -0.0205,0 -0.0609,0.0381 -0.0897,0.0847 -0.0288,0.0466 -0.012,0.0847 0.0373,0.0847 0.0493,0 0.0897,-0.0381 0.0897,-0.0847 z m 2.90928,-0.127 c 0.0297,-0.0774 1.3e-4,-0.127 -0.0756,-0.127 -0.0684,0 -0.12434,0.0572 -0.12434,0.127 0,0.0699 0.034,0.127 0.0756,0.127 0.0416,0 0.0975,-0.0572 0.12434,-0.127 z m 3.504219,5.45847 c -0.18441,-0.1127 -0.19448,-0.49301 -0.0149,-0.56193 0.12931,-0.0496 0.66171,0.0892 0.89478,0.23329 0.095,0.0587 0.0919,0.0941 -0.0179,0.20395 -0.1699,0.16994 -0.66964,0.24224 -0.86197,0.12469 z M 70.602603,169.594 c 0.02878,-0.0466 0.06913,-0.0847 0.08966,-0.0847 0.02053,0 0.03734,0.0381 0.03734,0.0847 0,0.0466 -0.04035,0.0847 -0.08966,0.0847 -0.04931,0 -0.06612,-0.0381 -0.03734,-0.0847 z m 40.132857,-2.62605 c 0.0293,-0.0473 0.0886,-0.0641 0.13199,-0.0373 0.11744,0.0726 0.0955,0.12338 -0.0532,0.12338 -0.0726,0 -0.10806,-0.0387 -0.0788,-0.0861 z m 0.35898,0.03 c 0.0582,-0.0235 0.15345,-0.0235 0.21166,0 0.0582,0.0235 0.0106,0.0427 -0.10583,0.0427 -0.11642,0 -0.16404,-0.0192 -0.10583,-0.0427 z m 6.99524,-10.11083 c 0.0477,-0.51329 0.0314,-0.67583 -0.0904,-0.90199 -0.14494,-0.26915 -0.14406,-0.28037 0.036,-0.4604 l 0.18453,-0.18453 0.30274,0.33052 c 0.31125,0.33981 0.36073,0.60741 0.10417,0.56342 -0.11461,-0.0196 -0.1451,0.0388 -0.1451,0.27789 0,0.34025 -0.18181,0.83538 -0.34342,0.93526 -0.084,0.0519 -0.0943,-0.067 -0.0485,-0.56017 z"
       id="path1" /></g></svg>
